# Blender v2.92.0 OBJ File: ''
# www.blender.org
mtllib door2.mtl
o Cube
v 1.000000 1.000000 -1.000000
v 1.000000 -1.000000 -1.000000
v 1.000000 1.000000 1.000000
v 1.000000 -1.000000 1.000000
v -1.000000 1.000000 -1.000000
v -1.000000 -1.000000 -1.000000
v -1.000000 1.000000 1.000000
v -1.000000 -1.000000 1.000000
vt 0.625000 0.500000
vt 0.875000 0.500000
vt 0.875000 0.750000
vt 0.625000 0.750000
vt 0.375000 0.750000
vt 0.625000 1.000000
vt 0.375000 1.000000
vt 0.375000 0.000000
vt 0.625000 0.000000
vt 0.625000 0.250000
vt 0.375000 0.250000
vt 0.125000 0.500000
vt 0.375000 0.500000
vt 0.125000 0.750000
vn 0.0000 1.0000 0.0000
vn 0.0000 0.0000 1.0000
vn -1.0000 0.0000 0.0000
vn 0.0000 -1.0000 0.0000
vn 1.0000 0.0000 0.0000
vn 0.0000 0.0000 -1.0000
usemtl Material
s off
f 1/1/1 5/2/1 7/3/1 3/4/1
f 4/5/2 3/4/2 7/6/2 8/7/2
f 8/8/3 7/9/3 5/10/3 6/11/3
f 6/12/4 2/13/4 4/5/4 8/14/4
f 2/13/5 1/1/5 3/4/5 4/5/5
f 6/11/6 5/10/6 1/1/6 2/13/6
o door
v 15.142300 -48.525101 -10.000002
v 15.142300 -48.525101 9.999998
v 15.142300 -10.833500 -10.000000
v 15.142300 -48.525101 9.999998
v 15.142300 -10.833500 10.000000
v 15.142300 -10.833500 -10.000000
v -50.987202 -10.833500 -10.000000
v 15.142300 -10.833500 -10.000000
v -50.987202 -10.833500 10.000000
v 15.142300 -10.833500 -10.000000
v 15.142300 -10.833500 10.000000
v -50.987202 -10.833500 10.000000
v -50.987202 -48.525101 -10.000002
v -50.987202 -10.833500 -10.000000
v -50.987202 -48.525101 9.999998
v -50.987202 -10.833500 -10.000000
v -50.987202 -10.833500 10.000000
v -50.987202 -48.525101 9.999998
v -50.987202 -48.525101 -10.000002
v -50.987202 -48.525101 9.999998
v 15.142300 -48.525101 -10.000002
v -50.987202 -48.525101 9.999998
v 15.142300 -48.525101 9.999998
v 15.142300 -48.525101 -10.000002
v 21.364000 -55.000000 -10.000003
v 21.364000 -55.000000 9.999997
v -58.636002 -55.000000 -10.000003
v 21.364000 -55.000000 9.999997
v -58.636002 -55.000000 9.999997
v -58.636002 -55.000000 -10.000003
v 21.364000 -55.000000 9.999997
v 21.364000 -55.000000 -10.000003
v 21.364000 -5.000000 10.000000
v 21.364000 -55.000000 -10.000003
v 21.364000 -5.000000 -10.000000
v 21.364000 -5.000000 10.000000
v -58.636002 -55.000000 -10.000003
v -58.636002 -55.000000 9.999997
v -58.636002 -5.000000 -10.000000
v -58.636002 -55.000000 9.999997
v -58.636002 -5.000000 10.000000
v -58.636002 -5.000000 -10.000000
v 50.594200 -0.000009 200.000000
v 50.594200 0.000009 -200.000000
v -99.405800 -0.000009 200.000000
v 50.594200 0.000009 -200.000000
v -99.405800 0.000009 -200.000000
v -99.405800 -0.000009 200.000000
v -99.405800 -5.000009 200.000000
v 50.594200 -5.000009 200.000000
v -99.405800 -0.000009 200.000000
v 50.594200 -5.000009 200.000000
v 50.594200 -0.000009 200.000000
v -99.405800 -0.000009 200.000000
v 15.142300 -10.833500 10.000000
v 21.364000 -5.000000 10.000000
v -50.987202 -10.833500 10.000000
v 21.364000 -5.000000 10.000000
v -58.636002 -5.000000 10.000000
v -50.987202 -10.833500 10.000000
v -50.987202 -10.833500 10.000000
v -58.636002 -5.000000 10.000000
v -50.987202 -48.525101 9.999998
v -58.636002 -5.000000 10.000000
v -58.636002 -55.000000 9.999997
v -50.987202 -48.525101 9.999998
v -50.987202 -48.525101 9.999998
v -58.636002 -55.000000 9.999997
v 15.142300 -48.525101 9.999998
v -58.636002 -55.000000 9.999997
v 21.364000 -55.000000 9.999997
v 15.142300 -48.525101 9.999998
v 15.142300 -48.525101 9.999998
v 21.364000 -55.000000 9.999997
v 15.142300 -10.833500 10.000000
v 21.364000 -55.000000 9.999997
v 21.364000 -5.000000 10.000000
v 15.142300 -10.833500 10.000000
v 21.364000 -5.000000 -10.000000
v 50.594200 -4.999991 -200.000000
v 21.364000 -5.000000 10.000000
v 50.594200 -4.999991 -200.000000
v 50.594200 -5.000009 200.000000
v 21.364000 -5.000000 10.000000
v 21.364000 -5.000000 10.000000
v 50.594200 -5.000009 200.000000
v -58.636002 -5.000000 10.000000
v 50.594200 -5.000009 200.000000
v -99.405800 -5.000009 200.000000
v -58.636002 -5.000000 10.000000
v -58.636002 -5.000000 10.000000
v -99.405800 -5.000009 200.000000
v -58.636002 -5.000000 -10.000000
v -99.405800 -5.000009 200.000000
v -99.405800 -4.999991 -200.000000
v -58.636002 -5.000000 -10.000000
v -58.636002 -5.000000 -10.000000
v -99.405800 -4.999991 -200.000000
v 21.364000 -5.000000 -10.000000
v -99.405800 -4.999991 -200.000000
v 50.594200 -4.999991 -200.000000
v 21.364000 -5.000000 -10.000000
v 15.142300 -10.833500 -10.000000
v 21.364000 -5.000000 -10.000000
v 15.142300 -48.525101 -10.000002
v 21.364000 -5.000000 -10.000000
v 21.364000 -55.000000 -10.000003
v 15.142300 -48.525101 -10.000002
v 15.142300 -48.525101 -10.000002
v 21.364000 -55.000000 -10.000003
v -50.987202 -48.525101 -10.000002
v 21.364000 -55.000000 -10.000003
v -58.636002 -55.000000 -10.000003
v -50.987202 -48.525101 -10.000002
v -50.987202 -48.525101 -10.000002
v -58.636002 -55.000000 -10.000003
v -50.987202 -10.833500 -10.000000
v -58.636002 -55.000000 -10.000003
v -58.636002 -5.000000 -10.000000
v -50.987202 -10.833500 -10.000000
v -50.987202 -10.833500 -10.000000
v -58.636002 -5.000000 -10.000000
v 15.142300 -10.833500 -10.000000
v -58.636002 -5.000000 -10.000000
v 21.364000 -5.000000 -10.000000
v 15.142300 -10.833500 -10.000000
v -99.405800 -4.999991 -200.000000
v -99.405800 -5.000009 200.000000
v -99.405800 0.000009 -200.000000
v -99.405800 -5.000009 200.000000
v -99.405800 -0.000009 200.000000
v -99.405800 0.000009 -200.000000
v 50.594200 -4.999991 -200.000000
v -99.405800 -4.999991 -200.000000
v 50.594200 0.000009 -200.000000
v -99.405800 -4.999991 -200.000000
v -99.405800 0.000009 -200.000000
v 50.594200 0.000009 -200.000000
v 50.594200 -5.000009 200.000000
v 50.594200 -4.999991 -200.000000
v 50.594200 -0.000009 200.000000
v 50.594200 -4.999991 -200.000000
v 50.594200 0.000009 -200.000000
v 50.594200 -0.000009 200.000000
vn -1.0000 0.0000 0.0000
vn 0.0000 -1.0000 0.0000
vn 1.0000 0.0000 0.0000
vn 0.0000 1.0000 0.0000
vn 0.0000 0.0000 1.0000
vn 0.0000 0.0000 -1.0000
usemtl Default_OBJ
s 1
f 9//7 10//7 11//7
f 12//7 13//7 14//7
f 15//8 16//8 17//8
f 18//8 19//8 20//8
f 21//9 22//9 23//9
f 24//9 25//9 26//9
f 27//10 28//10 29//10
f 30//10 31//10 32//10
f 33//8 34//8 35//8
f 36//8 37//8 38//8
f 39//9 40//9 41//9
f 42//9 43//9 44//9
f 45//7 46//7 47//7
f 48//7 49//7 50//7
f 51//10 52//10 53//10
f 54//10 55//10 56//10
f 57//11 58//11 59//11
f 60//11 61//11 62//11
f 63//11 64//11 65//11
f 66//11 67//11 68//11
f 69//11 70//11 71//11
f 72//11 73//11 74//11
f 75//11 76//11 77//11
f 78//11 79//11 80//11
f 81//11 82//11 83//11
f 84//11 85//11 86//11
f 87//8 88//8 89//8
f 90//8 91//8 92//8
f 93//8 94//8 95//8
f 96//8 97//8 98//8
f 99//8 100//8 101//8
f 102//8 103//8 104//8
f 105//8 106//8 107//8
f 108//8 109//8 110//8
f 111//12 112//12 113//12
f 114//12 115//12 116//12
f 117//12 118//12 119//12
f 120//12 121//12 122//12
f 123//12 124//12 125//12
f 126//12 127//12 128//12
f 129//12 130//12 131//12
f 132//12 133//12 134//12
f 135//7 136//7 137//7
f 138//7 139//7 140//7
f 141//12 142//12 143//12
f 144//12 145//12 146//12
f 147//9 148//9 149//9
f 150//9 151//9 152//9
