# Blender v2.92.0 OBJ File: ''
# www.blender.org
mtllib drawer6.mtl
o drawer2
v -0.241592 0.000000 -0.100000
v -0.241592 -0.010000 -0.090000
v -0.241592 -0.010000 -0.040000
v -0.241592 -0.065000 -0.100000
v -0.241592 -0.000000 0.185000
v -0.241592 -0.060000 -0.090000
v -0.241592 -0.060000 -0.040000
v -0.241592 -0.065000 0.185000
vn -1.0000 0.0000 0.0000
usemtl Default_OBJ
s 1
f 1//1 2//1 3//1
f 2//1 1//1 4//1
f 3//1 5//1 1//1
f 4//1 6//1 2//1
f 3//1 7//1 8//1
f 8//1 5//1 3//1
f 7//1 6//1 4//1
f 4//1 8//1 7//1
o mesh1
v -0.241592 -0.000000 0.185000
v 0.122962 -0.000000 0.185000
v 0.085153 -0.000000 0.165435
v -0.204452 -0.000000 0.165435
v -0.209820 -0.000000 0.085892
v -0.241592 0.000000 -0.100000
v 0.085153 -0.000000 0.098576
v 0.089969 -0.000000 0.085892
v 0.122962 0.000000 -0.100000
v -0.204452 -0.000000 0.098576
v 0.089969 0.000000 -0.088541
v -0.209820 0.000000 -0.088541
vn 0.0000 1.0000 0.0000
usemtl Default_OBJ
s 1
f 9//2 10//2 11//2
f 11//2 12//2 9//2
f 12//2 13//2 9//2
f 14//2 9//2 13//2
f 15//2 11//2 10//2
f 10//2 16//2 15//2
f 16//2 10//2 17//2
f 13//2 12//2 18//2
f 18//2 15//2 16//2
f 16//2 13//2 18//2
f 17//2 19//2 16//2
f 13//2 20//2 14//2
f 19//2 17//2 14//2
f 14//2 20//2 19//2
o mesh2
v 0.122962 -0.065000 0.185000
v 0.085153 -0.065000 0.165435
v 0.085153 -0.065000 0.098576
v -0.241592 -0.065000 0.185000
v 0.122962 -0.065000 -0.100000
v -0.204452 -0.065000 0.165435
v -0.204452 -0.065000 0.098576
v -0.241592 -0.065000 -0.100000
vn 0.0000 -1.0000 0.0000
usemtl Default_OBJ
s 1
f 21//3 22//3 23//3
f 22//3 21//3 24//3
f 23//3 25//3 21//3
f 24//3 26//3 22//3
f 23//3 27//3 28//3
f 28//3 25//3 23//3
f 27//3 26//3 24//3
f 24//3 28//3 27//3
o mesh3
v -0.241592 -0.065000 -0.100000
v -0.241592 0.000000 -0.100000
v 0.122962 0.000000 -0.100000
v 0.122962 -0.065000 -0.100000
vn 0.0000 0.0000 -1.0000
usemtl Default_OBJ
s 1
f 29//4 30//4 31//4
f 31//4 32//4 29//4
o mesh4
v 0.122962 0.000000 -0.100000
v 0.122962 -0.000000 0.185000
v 0.122962 -0.010000 -0.040000
v 0.122962 -0.010000 -0.090000
v 0.122962 -0.065000 -0.100000
v 0.122962 -0.065000 0.185000
v 0.122962 -0.060000 -0.040000
v 0.122962 -0.060000 -0.090000
vn 1.0000 0.0000 0.0000
usemtl Default_OBJ
s 1
f 33//5 34//5 35//5
f 35//5 36//5 33//5
f 37//5 33//5 36//5
f 35//5 34//5 38//5
f 38//5 39//5 35//5
f 39//5 38//5 37//5
f 37//5 40//5 39//5
f 36//5 40//5 37//5
o mesh5
v -0.209820 -0.045000 0.085892
v -0.209820 -0.000000 0.085892
v 0.089969 -0.000000 0.085892
v 0.089969 -0.045000 0.085892
vn 0.0000 0.0000 -1.0000
usemtl Default_OBJ
s 1
f 41//6 42//6 43//6
f 43//6 44//6 41//6
o mesh6
v 0.089969 -0.045000 0.085892
v 0.089969 -0.000000 0.085892
v 0.089969 0.000000 -0.088541
v 0.089969 -0.045000 -0.088541
vn -1.0000 0.0000 0.0000
usemtl Default_OBJ
s 1
f 45//7 46//7 47//7
f 47//7 48//7 45//7
o mesh7
v 0.089969 -0.045000 -0.088541
v 0.089969 0.000000 -0.088541
v -0.209820 0.000000 -0.088541
v -0.209820 -0.045000 -0.088541
vn 0.0000 0.0000 1.0000
usemtl Default_OBJ
s 1
f 49//8 50//8 51//8
f 51//8 52//8 49//8
o mesh8
v -0.209820 -0.045000 -0.088541
v -0.209820 0.000000 -0.088541
v -0.209820 -0.000000 0.085892
v -0.209820 -0.045000 0.085892
vn 1.0000 0.0000 0.0000
usemtl Default_OBJ
s 1
f 53//9 54//9 55//9
f 55//9 56//9 53//9
o mesh9
v -0.209820 -0.045000 -0.088541
v -0.209820 -0.045000 0.085892
v 0.089969 -0.045000 0.085892
v 0.089969 -0.045000 -0.088541
vn 0.0000 1.0000 0.0000
usemtl Default_OBJ
s 1
f 57//10 58//10 59//10
f 59//10 60//10 57//10
o mesh10
v 0.122962 -0.065000 0.185000
v 0.122962 -0.000000 0.185000
v -0.241592 -0.000000 0.185000
v -0.241592 -0.065000 0.185000
vn 0.0000 0.0000 1.0000
usemtl Default_OBJ
s 1
f 61//11 62//11 63//11
f 63//11 64//11 61//11
o mesh11
v 0.085153 -0.065000 0.165435
v -0.204452 -0.065000 0.165435
v -0.204452 -0.000000 0.165435
v 0.085153 -0.000000 0.165435
vn 0.0000 0.0000 -1.0000
usemtl Default_OBJ
s 1
f 65//12 66//12 67//12
f 67//12 68//12 65//12
o mesh12
v 0.085153 -0.000000 0.098576
v 0.085153 -0.065000 0.098576
v 0.085153 -0.065000 0.165435
v 0.085153 -0.000000 0.165435
vn -1.0000 0.0000 0.0000
usemtl Default_OBJ
s 1
f 69//13 70//13 71//13
f 71//13 72//13 69//13
o mesh13
v -0.204452 -0.000000 0.098576
v -0.204452 -0.065000 0.098576
v 0.085153 -0.065000 0.098576
v 0.085153 -0.000000 0.098576
vn 0.0000 0.0000 1.0000
usemtl Default_OBJ
s 1
f 73//14 74//14 75//14
f 75//14 76//14 73//14
o mesh14
v -0.204452 -0.065000 0.165435
v -0.204452 -0.065000 0.098576
v -0.204452 -0.000000 0.098576
v -0.204452 -0.000000 0.165435
vn 1.0000 0.0000 0.0000
usemtl Default_OBJ
s 1
f 77//15 78//15 79//15
f 79//15 80//15 77//15
o mesh15
v 0.169715 -0.010590 -0.042361
v 0.094781 -0.010590 -0.042361
v 0.094781 -0.063541 -0.042361
v 0.169715 -0.063541 -0.042361
vn 0.0000 -0.0000 1.0000
usemtl Default_OBJ
s 1
f 81//16 82//16 83//16
f 83//16 84//16 81//16
o mesh16
v 0.169715 -0.063541 -0.042361
v 0.094781 -0.063541 -0.042361
v 0.094781 -0.063541 -0.095312
v 0.169715 -0.063541 -0.095312
vn 0.0000 -1.0000 -0.0000
usemtl Default_OBJ
s 1
f 85//17 86//17 87//17
f 87//17 88//17 85//17
o mesh17
v 0.169715 -0.063541 -0.095312
v 0.094781 -0.063541 -0.095312
v 0.094781 -0.010590 -0.095312
v 0.169715 -0.010590 -0.095312
vn 0.0000 0.0000 -1.0000
usemtl Default_OBJ
s 1
f 89//18 90//18 91//18
f 91//18 92//18 89//18
o mesh18
v 0.169715 -0.010590 -0.095312
v 0.094781 -0.010590 -0.095312
v 0.094781 -0.010590 -0.042361
v 0.169715 -0.010590 -0.042361
vn 0.0000 1.0000 0.0000
usemtl Default_OBJ
s 1
f 93//19 94//19 95//19
f 95//19 96//19 93//19
o mesh19
v 0.169715 -0.010590 -0.095312
v 0.169715 -0.010590 -0.042361
v 0.169715 -0.063541 -0.042361
v 0.169715 -0.063541 -0.095312
vn 1.0000 -0.0000 0.0000
usemtl Default_OBJ
s 1
f 97//20 98//20 99//20
f 99//20 100//20 97//20
o mesh20
v -0.300667 -0.061508 -0.041006
v -0.214395 -0.061508 -0.041006
v -0.214395 -0.010251 -0.041006
v -0.300667 -0.010251 -0.041006
vn 0.0000 -0.0000 1.0000
usemtl Default_OBJ
s 1
f 101//21 102//21 103//21
f 103//21 104//21 101//21
o mesh21
v -0.300667 -0.010251 -0.041006
v -0.214395 -0.010251 -0.041006
v -0.214395 -0.010251 -0.092264
v -0.300667 -0.010251 -0.092264
vn 0.0000 1.0000 0.0000
usemtl Default_OBJ
s 1
f 105//22 106//22 107//22
f 107//22 108//22 105//22
o mesh22
v -0.300667 -0.010251 -0.092264
v -0.214395 -0.010251 -0.092264
v -0.214395 -0.061508 -0.092264
v -0.300667 -0.061508 -0.092264
vn 0.0000 0.0000 -1.0000
usemtl Default_OBJ
s 1
f 109//23 110//23 111//23
f 111//23 112//23 109//23
o mesh23
v -0.300667 -0.061508 -0.092264
v -0.214395 -0.061508 -0.092264
v -0.214395 -0.061508 -0.041006
v -0.300667 -0.061508 -0.041006
vn 0.0000 -1.0000 -0.0000
usemtl Default_OBJ
s 1
f 113//24 114//24 115//24
f 115//24 116//24 113//24
o mesh24
v -0.300667 -0.061508 -0.092264
v -0.300667 -0.061508 -0.041006
v -0.300667 -0.010251 -0.041006
v -0.300667 -0.010251 -0.092264
vn -1.0000 0.0000 0.0000
usemtl Default_OBJ
s 1
f 117//25 118//25 119//25
f 119//25 120//25 117//25
